<svg width="180" height="40" viewBox="0 0 180 40" fill="none" xmlns="http://www.w3.org/2000/svg">
  <g>
    <!-- Icon part -->
    <path d="M20 4C12.268 4 6 10.268 6 18s6.268 14 14 14 14-6.268 14-14S27.732 4 20 4z" fill="#0000FF"/>
    <path d="M15.5 10C14.672 10 14 10.672 14 11.5v13c0 .828.672 1.5 1.5 1.5h9c.828 0 1.5-.672 1.5-1.5v-13c0-.828-.672-1.5-1.5-1.5h-9z" fill="#fff"/>
    <path d="M17 14h6M17 18h6M17 22h4" stroke="#0000FF" strokeWidth="1.5" strokeLinecap="round"/>
    
    <!-- Text part -->
    <text x="45" y="26" font-family="Ubuntu" font-weight="700" font-size="24" fill="#0000FF">
      ResuSort
    </text>
  </g>
</svg> 